<svg xmlns="http://www.w3.org/2000/svg" xmlns:xlink="http://www.w3.org/1999/xlink" width="500" zoomAndPan="magnify" viewBox="0 0 375 374.999991" height="500" preserveAspectRatio="xMidYMid meet" version="1.0"><defs><g/></defs><path fill="#00A67E" d="M 308.460938 238.46875 L 296.421875 238.46875 L 296.421875 169.742188 L 308.460938 169.742188 Z M 269.585938 267.121094 C 269.585938 277.378906 261.230469 285.71875 250.972656 285.71875 L 124.8125 285.71875 C 114.558594 285.71875 106.210938 277.378906 106.210938 267.121094 L 106.210938 141.078125 C 106.210938 130.824219 114.558594 122.480469 124.8125 122.480469 L 250.972656 122.480469 C 261.230469 122.480469 269.585938 130.824219 269.585938 141.078125 Z M 222.285156 326.929688 L 153.5 326.929688 L 153.5 314.902344 L 222.285156 314.902344 Z M 79.097656 238.46875 L 67.058594 238.46875 L 67.058594 169.742188 L 79.097656 169.742188 Z M 153.5 82.585938 L 222.285156 82.585938 L 222.285156 94.613281 L 153.5 94.613281 Z M 391.269531 230.859375 L 335.050781 230.753906 L 335.050781 214.546875 L 389.988281 214.640625 L 390.015625 193.683594 L 335.050781 193.589844 L 335.050781 177.378906 L 390.046875 177.464844 L 390.082031 156.507812 L 335.050781 156.421875 L 335.050781 143.171875 L 296.15625 143.171875 L 296.15625 141.078125 C 296.15625 116.179688 275.886719 95.921875 250.972656 95.921875 L 248.867188 95.921875 L 248.867188 56.019531 L 235.578125 56.019531 L 235.578125 -0.179688 L 214.601562 -0.179688 L 214.601562 56.019531 L 198.382812 56.019531 L 198.382812 -0.179688 L 177.40625 -0.179688 L 177.40625 56.019531 L 161.175781 56.019531 L 161.175781 1.128906 L 140.210938 1.128906 L 140.210938 56.019531 L 126.917969 56.019531 L 126.917969 95.921875 L 124.8125 95.921875 C 99.890625 95.921875 79.628906 116.179688 79.628906 141.078125 L 79.628906 143.171875 L 40.480469 143.171875 L 40.480469 155.921875 L -16.175781 155.828125 L -16.210938 176.78125 L 40.480469 176.878906 L 40.480469 193.085938 L -16.242188 192.992188 L -16.269531 213.949219 L 40.480469 214.042969 L 40.480469 230.261719 L -14.988281 230.164062 L -15.015625 251.121094 L 40.480469 251.21875 L 40.480469 265.027344 L 79.628906 265.027344 L 79.628906 267.121094 C 79.628906 292.023438 99.890625 312.277344 124.8125 312.277344 L 126.917969 312.277344 L 126.917969 353.488281 L 140.210938 353.488281 L 140.210938 412.320312 L 161.175781 412.320312 L 161.175781 353.488281 L 177.40625 353.488281 L 177.40625 411.011719 L 198.382812 411.011719 L 198.382812 353.488281 L 214.601562 353.488281 L 214.601562 411.011719 L 235.578125 411.011719 L 235.578125 353.488281 L 248.867188 353.488281 L 248.867188 312.277344 L 250.972656 312.277344 C 275.886719 312.277344 296.15625 292.023438 296.15625 267.121094 L 296.15625 265.027344 L 335.050781 265.027344 L 335.050781 251.710938 L 391.242188 251.804688 L 391.269531 230.859375 " fill-opacity="1" fill-rule="nonzero"/><g fill="#231f20" fill-opacity="1"><g transform="translate(132.949215, 240.374984)"><g><path d="M 52.28125 -13.1875 L 23.5625 -13.1875 L 18.234375 0 L -1.359375 0 L 28.609375 -67.890625 L 47.515625 -67.890625 L 77.59375 0 L 57.609375 0 Z M 46.65625 -27.34375 L 37.921875 -49.078125 L 29.1875 -27.34375 Z M 46.65625 -27.34375 "/></g></g></g><g fill="#231f20" fill-opacity="1"><g transform="translate(209.178934, 240.374984)"><g><path d="M 6.78125 -67.890625 L 25.984375 -67.890625 L 25.984375 0 L 6.78125 0 Z M 6.78125 -67.890625 "/></g></g></g></svg>