<svg xmlns="http://www.w3.org/2000/svg" xmlns:xlink="http://www.w3.org/1999/xlink" width="500" zoomAndPan="magnify" viewBox="0 0 375 374.999991" height="500" preserveAspectRatio="xMidYMid meet" version="1.0"><defs><clipPath id="2331eafd89"><path d="M 37.5 7.558594 L 332.25 7.558594 L 332.25 367.558594 L 37.5 367.558594 Z M 37.5 7.558594 " clip-rule="nonzero"/></clipPath></defs><g clip-path="url(#2331eafd89)"><path fill="#00A67E" d="M 86.625 40.285156 C 77.582031 40.285156 70.253906 47.613281 70.253906 56.652344 L 70.253906 318.46875 C 70.253906 327.507812 77.582031 334.832031 86.625 334.832031 L 283.125 334.832031 C 292.167969 334.832031 299.496094 327.507812 299.496094 318.46875 L 299.496094 137.15625 C 299.496094 132.378906 297.410156 127.84375 293.78125 124.734375 L 199.789062 44.226562 C 196.824219 41.683594 193.042969 40.285156 189.136719 40.285156 Z M 37.503906 56.652344 C 37.503906 29.539062 59.496094 7.558594 86.625 7.558594 L 189.136719 7.558594 C 200.863281 7.558594 212.199219 11.75 221.105469 19.378906 L 315.09375 99.886719 C 325.980469 109.210938 332.246094 122.828125 332.246094 137.15625 L 332.246094 318.46875 C 332.246094 345.582031 310.253906 367.558594 283.125 367.558594 L 86.625 367.558594 C 59.496094 367.558594 37.503906 345.582031 37.503906 318.46875 Z M 37.503906 56.652344 " fill-opacity="1" fill-rule="evenodd"/></g><path fill="#00A67E" d="M 184.875 89.378906 L 184.875 32.105469 L 217.625 32.105469 L 217.625 89.378906 C 217.625 98.414062 224.957031 105.742188 234 105.742188 L 307.683594 105.742188 L 307.683594 138.46875 L 234 138.46875 C 206.867188 138.46875 184.875 116.488281 184.875 89.378906 Z M 184.875 89.378906 " fill-opacity="1" fill-rule="evenodd"/><path fill="#000000" d="M 119.375 269.378906 L 250.375 269.378906 L 250.375 302.105469 L 119.375 302.105469 Z M 119.375 269.378906 " fill-opacity="1" fill-rule="evenodd"/><path fill="#000000" d="M 168.5 154.832031 L 201.25 154.832031 L 201.25 244.832031 L 168.5 244.832031 Z M 168.5 154.832031 " fill-opacity="1" fill-rule="evenodd"/><path fill="#000000" d="M 173.296875 143.261719 C 179.691406 136.871094 190.0625 136.871094 196.457031 143.261719 L 245.578125 192.351562 L 222.421875 215.492188 L 184.875 177.972656 L 147.332031 215.492188 L 124.171875 192.351562 Z M 173.296875 143.261719 " fill-opacity="1" fill-rule="evenodd"/></svg>