<svg xmlns="http://www.w3.org/2000/svg" xmlns:xlink="http://www.w3.org/1999/xlink" width="500" zoomAndPan="magnify" viewBox="0 0 375 374.999991" height="500" preserveAspectRatio="xMidYMid meet" version="1.0"><defs><clipPath id="9eb5c193d0"><path d="M 29.527344 1.769531 L 337.722656 1.769531 L 337.722656 373 L 29.527344 373 Z M 29.527344 1.769531 " clip-rule="nonzero"/></clipPath></defs><g clip-path="url(#9eb5c193d0)"><path fill="#00A67E" d="M 263.347656 63.027344 C 261.683594 60.195312 261.3125 56.8125 261.375 53.554688 C 261.558594 41.992188 266.976562 30.183594 276.953125 24.28125 C 276.644531 25.574219 276.273438 26.925781 275.964844 28.214844 C 281.199219 20.589844 283.234375 10.875 281.445312 1.773438 C 289.140625 5.832031 293.945312 14.132812 295.421875 22.742188 C 296.960938 31.289062 295.609375 40.144531 293.515625 48.570312 C 292.035156 54.601562 290.128906 60.8125 285.632812 65.054688 C 282.0625 68.5 277.320312 70.773438 273.257812 69.421875 C 271.839844 69.175781 270.425781 68.808594 269.011719 68.253906 C 268.515625 68.070312 267.964844 67.820312 267.53125 67.515625 C 265.808594 66.46875 264.328125 64.6875 263.347656 63.027344 Z M 226.097656 222.3125 C 227.140625 217.820312 228.007812 213.945312 229.050781 209.582031 C 229.546875 207.492188 230.039062 205.398438 230.527344 203.308594 C 231.207031 200.539062 231.824219 197.773438 232.5 195.066406 C 235.824219 181.351562 238.839844 169.359375 241.980469 157.304688 C 242.164062 157.492188 242.472656 157.613281 242.78125 157.675781 L 257.3125 160.996094 C 257.621094 161.054688 257.867188 161.054688 258.175781 160.996094 C 257.433594 164.808594 256.878906 167.636719 256.078125 171.570312 C 255.835938 172.863281 255.527344 174.21875 255.277344 175.570312 C 254.972656 176.984375 254.664062 178.398438 254.417969 179.875 C 253.925781 182.214844 253.433594 184.550781 252.941406 186.949219 C 252.261719 190.332031 251.523438 193.714844 250.785156 197.15625 C 250.414062 198.816406 250.046875 200.476562 249.675781 202.140625 C 249.246094 204.046875 248.875 205.953125 248.445312 207.859375 C 248.078125 209.457031 247.707031 211.117188 247.335938 212.777344 C 246.722656 215.425781 246.167969 218.128906 245.550781 220.835938 C 245.058594 222.925781 244.75 224.460938 244.261719 226.554688 C 243.890625 228.214844 243.953125 227.84375 243.582031 229.503906 C 242.660156 229.691406 241.671875 229.753906 240.75 229.753906 C 240.625 229.753906 240.503906 229.753906 240.382812 229.753906 C 235.640625 229.753906 231.453125 227.84375 228.066406 225.015625 C 227.390625 224.460938 226.652344 223.726562 226.035156 223.050781 C 226.097656 222.003906 225.851562 223.292969 226.097656 222.3125 Z M 227.511719 284.367188 C 228.4375 284.242188 229.359375 284.058594 230.285156 283.875 C 229.546875 286.824219 229.730469 285.902344 228.988281 288.730469 C 228.4375 290.824219 227.945312 292.851562 227.390625 294.882812 C 215.074219 341.558594 204.734375 373.046875 201.222656 372.25 C 201.039062 372.1875 200.914062 372.125 200.792969 371.941406 C 200.730469 371.878906 200.667969 371.757812 200.609375 371.570312 C 200.484375 371.328125 200.421875 371.078125 200.359375 370.710938 C 198.882812 364.070312 202.761719 336.085938 210.210938 297.21875 C 210.582031 295.25 210.949219 293.28125 211.382812 291.3125 C 211.9375 288.421875 211.566406 289.285156 212.183594 286.269531 C 213.046875 286.210938 213.964844 286.085938 214.828125 286.027344 C 219.078125 285.597656 223.324219 285.039062 227.511719 284.367188 Z M 257.925781 158.472656 L 243.398438 155.152344 C 243.089844 155.089844 242.84375 154.96875 242.597656 154.78125 C 242.105469 154.414062 241.859375 153.859375 241.980469 153.371094 L 265.871094 73.234375 C 265.992188 72.804688 266.546875 72.558594 267.101562 72.679688 L 272.335938 73.910156 C 272.886719 74.035156 273.320312 74.523438 273.195312 74.957031 L 259.835938 157.492188 C 259.773438 158.042969 259.28125 158.414062 258.664062 158.535156 C 258.484375 158.535156 258.234375 158.535156 257.925781 158.472656 Z M 186.878906 120.898438 C 172.902344 120.960938 161.511719 112.535156 161.449219 102.140625 C 161.386719 91.746094 172.714844 83.257812 186.695312 83.199219 C 200.667969 83.136719 212.058594 91.5625 212.058594 101.953125 C 212.183594 112.347656 200.851562 120.835938 186.878906 120.898438 Z M 183.0625 272.496094 C 169.085938 272.1875 157.941406 263.578125 158.125 253.121094 C 158.308594 242.730469 169.824219 234.488281 183.800781 234.796875 C 197.773438 235.101562 208.917969 243.714844 208.734375 254.167969 C 208.550781 264.5625 197.035156 272.800781 183.0625 272.496094 Z M 121.246094 134.917969 C 108.625 140.945312 94.769531 138.242188 90.277344 128.832031 C 85.78125 119.421875 92.371094 106.933594 104.992188 100.910156 C 117.613281 94.882812 131.46875 97.589844 135.960938 106.996094 C 140.457031 116.347656 133.867188 128.894531 121.246094 134.917969 Z M 129.863281 245.863281 C 124.570312 254.84375 110.472656 256.320312 98.464844 249.1875 C 86.398438 242.050781 80.980469 229.015625 86.273438 220.097656 C 91.570312 211.117188 105.667969 209.640625 117.675781 216.777344 C 129.742188 223.851562 135.222656 236.886719 129.863281 245.863281 Z M 84.183594 173.234375 C 83.074219 187.132812 73.777344 197.773438 63.371094 196.972656 C 52.96875 196.175781 45.457031 184.179688 46.5625 170.28125 C 47.671875 156.320312 56.96875 145.742188 67.371094 146.542969 C 77.71875 147.34375 85.289062 159.273438 84.183594 173.234375 Z M 335.8125 150.476562 C 332.859375 139.039062 326.636719 128.707031 318.324219 120.28125 C 306.628906 108.289062 293.207031 98.878906 275.414062 90.945312 C 275.351562 90.945312 275.289062 90.886719 275.226562 90.824219 L 275.226562 90.945312 L 264.269531 158.597656 C 264.085938 159.644531 263.53125 160.503906 262.667969 161.054688 L 262.484375 162.226562 C 262.359375 162.964844 262.175781 163.703125 262.050781 164.5 C 261.992188 164.746094 261.929688 164.992188 261.867188 165.300781 C 261.808594 165.667969 261.746094 166.039062 261.621094 166.46875 C 261.4375 167.453125 261.191406 168.5 261.003906 169.542969 C 260.882812 170.097656 260.761719 170.648438 260.699219 171.203125 C 260.574219 171.757812 260.453125 172.3125 260.328125 172.925781 L 260.203125 173.417969 C 259.960938 174.585938 259.714844 175.753906 259.464844 176.925781 C 259.28125 177.96875 259.035156 179.074219 258.789062 180.121094 L 258.113281 183.441406 C 257.804688 185.039062 257.433594 186.640625 257.066406 188.300781 C 256.265625 192.113281 255.464844 195.988281 254.601562 199.738281 C 258.359375 203.246094 258.914062 207.429688 258.914062 213.023438 C 258.914062 214.007812 258.851562 214.992188 258.664062 215.917969 C 257.558594 223.234375 252.386719 229.199219 245.488281 231.414062 C 245.367188 231.476562 245.308594 231.476562 245.183594 231.535156 C 244.382812 231.78125 243.582031 231.964844 242.78125 232.089844 C 241.859375 232.273438 240.875 232.335938 239.949219 232.335938 C 239.824219 232.335938 239.703125 232.335938 239.578125 232.335938 C 234.839844 232.335938 230.46875 230.613281 227.082031 227.785156 C 226.402344 227.230469 225.726562 226.554688 225.171875 225.878906 C 224.433594 225.078125 223.820312 224.21875 223.203125 223.292969 C 221.785156 221.082031 220.863281 218.558594 220.433594 215.917969 C 220.246094 214.992188 220.1875 214.007812 220.1875 213.023438 C 220.1875 206.074219 222.710938 199.554688 228.25 196.113281 C 231.699219 181.84375 235.085938 168.191406 238.410156 155.582031 L 238.410156 154.601562 C 238.101562 153.859375 238.101562 153.0625 238.289062 152.261719 L 238.410156 151.953125 L 238.65625 151.15625 L 258.542969 84.367188 C 236.6875 76.675781 213.046875 72.679688 186.632812 72.679688 C 99.945312 72.679688 29.507812 119.914062 29.507812 178.15625 C 29.507812 179.136719 29.507812 180.058594 29.570312 181.046875 C 31.847656 237.992188 101.359375 283.6875 186.816406 283.6875 C 194.945312 283.6875 202.824219 283.378906 210.519531 282.765625 C 211.382812 282.703125 212.246094 282.644531 213.105469 282.519531 C 213.964844 282.457031 214.890625 282.335938 215.753906 282.273438 C 220.0625 281.84375 224.3125 281.226562 228.5 280.554688 C 229.421875 280.429688 230.347656 280.246094 231.269531 280.058594 C 232.007812 279.9375 232.683594 279.8125 233.425781 279.628906 C 233.609375 279.566406 233.792969 279.566406 233.976562 279.503906 C 246.660156 277.109375 258.664062 273.539062 269.933594 268.683594 C 281.386719 263.765625 292.160156 257.488281 302.316406 249.679688 C 306.441406 246.480469 309.460938 242.113281 310.507812 237.007812 L 310.507812 236.886719 C 310.691406 236.085938 310.816406 235.347656 310.9375 234.550781 C 311.304688 232.214844 311.429688 229.8125 310.507812 227.109375 C 307.984375 219.542969 306.199219 216.652344 298.992188 213.886719 C 291.726562 211.117188 283.847656 209.886719 280.214844 206.9375 C 279.351562 206.199219 274.058594 201.894531 272.640625 196.050781 C 272.210938 194.390625 272.148438 192.667969 272.519531 190.824219 C 273.875 184.304688 280.523438 180.554688 284.277344 179.382812 C 286.863281 178.585938 290.867188 178.15625 291.667969 178.03125 C 294.3125 177.722656 296.347656 177.722656 297.699219 177.722656 C 304.964844 177.664062 307.367188 178.335938 312.847656 178.398438 C 319.988281 178.523438 323.867188 178.585938 327.992188 176.371094 C 327.992188 176.371094 332.242188 174.09375 335.378906 169.300781 C 336.367188 167.820312 336.984375 165.917969 337.226562 163.703125 C 337.660156 160.257812 337.164062 155.707031 335.8125 150.476562 " fill-opacity="1" fill-rule="nonzero"/></g></svg>